<svg id="Capa_2" data-name="Capa 2" xmlns="http://www.w3.org/2000/svg" viewBox="0 0 792 342.35"><defs><style>.cls-1{fill:#009fe3;}.cls-2{fill:#e30613;}</style></defs><path class="cls-1" d="M331.59,151.32a21,21,0,0,0-16.15,6.91c-3.43,3.72-5.45,8.6-6.12,14.61H226.37l-26.94-45.06a6.27,6.27,0,0,0-5.93-3,6.38,6.38,0,0,0-5.38,4l-30.9,80.57-22.49-61.18a6.24,6.24,0,0,0-5.62-4.13,6.13,6.13,0,0,0-6.09,3.76l-10.8,24.57H65.75a6.32,6.32,0,1,0,0,12.63h50.59a6.3,6.3,0,0,0,5.77-3.77l6.17-14,22.89,62.27a6.3,6.3,0,0,0,11.81.08l32.28-84.13,22.11,37a6.36,6.36,0,0,0,5.42,3.07H310a24.47,24.47,0,0,0,3.95,8.83q6.15,8.37,19,8.37,8.1,0,13.49-3.72a21.27,21.27,0,0,0,7.89-10.85l-12.95-2.18a10.28,10.28,0,0,1-3.15,5.37A8,8,0,0,1,333,193a9.84,9.84,0,0,1-7.49-3.22q-3-3.21-3.15-9H355q.29-14.94-6.06-22.18T331.59,151.32Zm-9,21.46q0-5.31,2.73-8.42a9.06,9.06,0,0,1,7-3.1,8.93,8.93,0,0,1,6.75,2.94q2.78,2.94,2.91,8.58Z"/><path class="cls-1" d="M397.61,158.16q-6-6.84-14.25-6.84a19.14,19.14,0,0,0-14.85,6.5q-5.88,6.5-5.87,19,0,12.21,6,19a18.72,18.72,0,0,0,14.51,6.82,18.24,18.24,0,0,0,8.25-2.06,19.52,19.52,0,0,0,7.11-6.27v7.22h12.07V133.74h-13Zm-3.1,30.42a9.56,9.56,0,0,1-7.63,3.82,9.81,9.81,0,0,1-8.79-5.09q-2.18-3.51-2.18-11.38,0-7.31,3.13-11a9.77,9.77,0,0,1,7.75-3.68A9.63,9.63,0,0,1,394.6,165q3.06,3.72,3.06,12.19Q397.66,184.77,394.51,188.58Z"/><rect class="cls-1" x="423.43" y="152.43" width="13" height="49.13"/><rect class="cls-1" x="423.43" y="133.74" width="13" height="12.03"/><path class="cls-1" d="M492.18,133.74l-26.42,67.82h14.53l5.6-15.4H513l5.92,15.4h14.9l-27.16-67.82Zm-2.08,41,9.16-25.17,9.34,25.17Z"/><path class="cls-1" d="M578.23,176.53q-4.11-3.42-14.5-5.78c-6.93-1.58-11-2.79-12.15-3.66a2.87,2.87,0,0,1-1.29-2.36,3.05,3.05,0,0,1,1.48-2.63q2.22-1.44,7.36-1.44a10.86,10.86,0,0,1,6.26,1.53,7.59,7.59,0,0,1,3,4.39l12.26-2.26a16.82,16.82,0,0,0-6.76-9.72q-4.9-3.28-15-3.28-10.59,0-15.63,4.35a13.58,13.58,0,0,0-5,10.73A12.68,12.68,0,0,0,544,177.46q4.22,2.86,19.94,6.33,3.38.79,4.35,1.72a3.4,3.4,0,0,1,.93,2.45,4.14,4.14,0,0,1-1.71,3.47q-2.55,1.84-7.59,1.85a11.43,11.43,0,0,1-7.13-2,9.61,9.61,0,0,1-3.38-5.76l-13,2a18.7,18.7,0,0,0,7.66,11.06q5.85,4.07,15.89,4.07,11.06,0,16.7-4.86a14.83,14.83,0,0,0,5.64-11.61Q582.3,180,578.23,176.53Z"/><path class="cls-1" d="M630.93,176.53q-4.12-3.42-14.5-5.78c-6.93-1.58-11-2.79-12.15-3.66a2.87,2.87,0,0,1-1.29-2.36,3.05,3.05,0,0,1,1.48-2.63q2.22-1.44,7.35-1.44a10.87,10.87,0,0,1,6.27,1.53,7.53,7.53,0,0,1,3,4.39l12.27-2.26a16.82,16.82,0,0,0-6.76-9.72q-4.91-3.28-15-3.28-10.59,0-15.64,4.35a13.61,13.61,0,0,0-5,10.73,12.66,12.66,0,0,0,5.83,11.06q4.21,2.86,19.94,6.33,3.38.79,4.35,1.72A3.39,3.39,0,0,1,622,188a4.14,4.14,0,0,1-1.71,3.47q-2.54,1.84-7.59,1.85a11.42,11.42,0,0,1-7.12-2,9.56,9.56,0,0,1-3.38-5.76l-13,2a18.73,18.73,0,0,0,7.65,11.06q5.85,4.07,15.89,4.07,11.07,0,16.71-4.86A14.83,14.83,0,0,0,635,186.2Q635,180,630.93,176.53Z"/><rect class="cls-1" x="646.38" y="133.74" width="13" height="12.03"/><rect class="cls-1" x="646.38" y="152.43" width="13" height="49.13"/><path class="cls-1" d="M710,176.53q-4.12-3.42-14.5-5.78c-6.93-1.58-11-2.79-12.15-3.66a2.87,2.87,0,0,1-1.29-2.36,3.05,3.05,0,0,1,1.48-2.63q2.22-1.44,7.35-1.44a10.87,10.87,0,0,1,6.27,1.53,7.59,7.59,0,0,1,3,4.39l12.26-2.26a16.82,16.82,0,0,0-6.76-9.72q-4.9-3.28-15-3.28-10.59,0-15.64,4.35a13.61,13.61,0,0,0-5,10.73,12.66,12.66,0,0,0,5.83,11.06q4.22,2.86,19.94,6.33,3.38.79,4.35,1.72A3.4,3.4,0,0,1,701,188a4.15,4.15,0,0,1-1.72,3.47q-2.53,1.84-7.59,1.85a11.42,11.42,0,0,1-7.12-2,9.56,9.56,0,0,1-3.38-5.76l-13,2a18.73,18.73,0,0,0,7.65,11.06q5.85,4.07,15.89,4.07,11.07,0,16.71-4.86A14.83,14.83,0,0,0,714,186.2Q714,180,710,176.53Z"/><path class="cls-1" d="M747.89,190.64a17,17,0,0,1-5.23,1.25,3.63,3.63,0,0,1-2.2-.65,2.81,2.81,0,0,1-1.15-1.64,48.73,48.73,0,0,1-.26-7v-19.8h8.89V152.43h-8.89V135.08l-13,7.58v9.77h-6v10.36h6v21.42a62.91,62.91,0,0,0,.41,9.16,12.06,12.06,0,0,0,1.83,5.07,9.28,9.28,0,0,0,4.14,3.05,16.21,16.21,0,0,0,6.34,1.18A25.94,25.94,0,0,0,749,200.73Z"/><path class="cls-2" d="M296.42,120.82H217.67V42.07a3.58,3.58,0,0,0-3.58-3.59H125.48a3.58,3.58,0,0,0-3.58,3.59v78.75H43.14a3.58,3.58,0,0,0-3.58,3.58V213a3.58,3.58,0,0,0,3.58,3.58H121.9v78.76a3.58,3.58,0,0,0,3.58,3.58h88.61a3.58,3.58,0,0,0,3.58-3.58V216.59h78.75A3.58,3.58,0,0,0,300,213V194.3H222.79a15.24,15.24,0,0,1-13-7.37L197,165.54l-25.77,67.17a15.21,15.21,0,0,1-14.14,9.72H157a15.23,15.23,0,0,1-14.15-9.92L127,189.4a15.13,15.13,0,0,1-10.69,4.41H65.75a15.15,15.15,0,1,1,0-30.29h40.7l8.49-19.29a15.15,15.15,0,0,1,28.08.87l14.37,39.1,22.48-58.6A15.15,15.15,0,0,1,207,123.25L231.38,164h46.15v0H300V124.4A3.58,3.58,0,0,0,296.42,120.82Z"/></svg>